ply
format ascii 1.0
comment Created by Blender 2.81 (sub 16) - www.blender.org, source file: 'test_lustro_hex_mid70.blend'
element vertex 18
property float x
property float y
property float z
property float nx
property float ny
property float nz
property float s
property float t
element face 6
property list uchar uint vertex_indices
end_header
0.089293 0.037528 -0.065000 -0.819152 0.496732 -0.286788 0.000000 0.000000
0.043780 0.000000 -0.000000 -0.819152 0.496732 -0.286788 0.000000 1.000000
0.089293 0.075055 -0.000000 -0.819152 0.496732 -0.286788 1.000000 1.000000
0.089293 -0.075055 0.000000 -0.819152 -0.496732 -0.286788 0.000000 0.000000
0.043780 -0.000000 0.000000 -0.819152 -0.496732 -0.286788 0.000000 1.000000
0.089293 -0.037528 -0.065000 -0.819152 -0.496732 -0.286788 1.000000 1.000000
0.089293 -0.037528 -0.065000 -0.819152 0.000000 -0.573576 0.000000 0.000000
0.043780 -0.000000 -0.000000 -0.819152 0.000000 -0.573576 0.000000 1.000000
0.089293 0.037528 -0.065000 -0.819152 0.000000 -0.573576 1.000000 1.000000
0.089293 0.075055 0.000000 -0.819152 0.496732 0.286788 0.000000 0.000000
0.043780 0.000000 -0.000000 -0.819152 0.496732 0.286788 0.000000 1.000000
0.089293 0.037528 0.065000 -0.819152 0.496732 0.286788 1.000000 1.000000
0.089293 0.037528 0.065000 -0.819152 -0.000001 0.573576 0.000000 0.000000
0.043780 0.000000 0.000000 -0.819152 -0.000001 0.573576 0.000000 1.000000
0.089293 -0.037528 0.065000 -0.819152 -0.000001 0.573576 1.000000 1.000000
0.089293 -0.037528 0.065000 -0.819152 -0.496732 0.286788 0.000000 0.000000
0.043780 0.000000 0.000000 -0.819152 -0.496732 0.286788 0.000000 1.000000
0.089293 -0.075055 -0.000000 -0.819152 -0.496732 0.286788 1.000000 1.000000
3 0 1 2
3 3 4 5
3 6 7 8
3 9 10 11
3 12 13 14
3 15 16 17
